<svg xmlns="http://www.w3.org/2000/svg" viewBox="0 0 15 15" aria-hidden="true" class="activitymeta__rewardsicon" focusable="false">
  <g aria-hidden="true">
    <rect width="15" height="15" fill="none"></rect>
    <polygon points="4.94 15 4.94 9.87 10.06 9.87 4.94 15" fill="#00838f"></polygon>
    <polygon points="10.06 15 10.06 9.87 4.94 9.87 10.06 15" fill="006064"></polygon>
    <path d="M6.87.31A.78.78,0,0,1,8.1.31l.17.2A1.69,1.69,0,0,0,9.81,1l.25-.06a.78.78,0,0,1,1,.73v.26a1.7,1.7,0,0,0,1,1.31l.24.1a.78.78,0,0,1,.38,1.17l-.14.22a1.69,1.69,0,0,0,0,1.62l.14.22a.78.78,0,0,1-.21,1.08l-.17.09-.24.1a1.7,1.7,0,0,0-1,1.31v.26a.78.78,0,0,1-.8.76l-.2,0-.25-.06a1.69,1.69,0,0,0-1.54.5l-.17.2a.78.78,0,0,1-1.23,0l-.17-.2a1.69,1.69,0,0,0-1.52-.51l-.25.06a.78.78,0,0,1-1-.73V9.15a1.69,1.69,0,0,0-1-1.31l-.24-.1a.78.78,0,0,1-.38-1.16l.14-.22a1.69,1.69,0,0,0,0-1.62l-.14-.23a.78.78,0,0,1,.21-1.08l.17-.09.24-.1a1.7,1.7,0,0,0,1-1.31V1.67a.78.78,0,0,1,.8-.76l.2,0L5.19,1A1.69,1.69,0,0,0,6.71.51Z" fill="#00acc1"></path>
    <circle cx="7.48" cy="5.54" r="3.97" fill="#4dd0e1"></circle>
    <circle cx="7.48" cy="5.54" r="3.15" fill="#b2ebf2"></circle>
    <path d="M4.6,5.8A3.14,3.14,0,0,1,9.83,3.45,3.14,3.14,0,1,0,5.32,7.81l.07.07A3.13,3.13,0,0,1,4.6,5.8Z" fill="#80deea"></path>
  </g>
</svg>